<?xml version="1.0" encoding="UTF-8" standalone="no"?>
<!-- Created with Inkscape (http://www.inkscape.org/) -->

<svg
   width="512"
   height="512"
   viewBox="0 0 135.46666 135.46667"
   version="1.1"
   id="svg1"
   xmlns="http://www.w3.org/2000/svg"
   xmlns:svg="http://www.w3.org/2000/svg">
  <defs
     id="defs1" />
  <g
     id="layer1">
    <g
       id="g4"
       transform="matrix(0.32528235,0,0,0.32528235,-9.1757751,1.3484777)">
      <path
         style="font-size:474.201px;font-family:'GM Exp Norm';-inkscape-font-specification:'GM Exp Norm';letter-spacing:-16.5421px;white-space:pre;fill:#009fc2;stroke:#000000;stroke-width:0"
         d="m 170.46883,156.66378 q 0,29.40046 -20.86484,50.26531 -20.86485,20.86484 -50.265309,20.86484 H 87.483657 q -11.855025,0 -11.855025,11.85502 V 346.34418 H 28.208533 V 85.533633 q 0,-9.95822 6.638814,-16.597034 7.113015,-7.113015 17.071235,-7.113015 h 47.420099 q 29.400459,0 50.265309,20.864843 20.86484,20.864843 20.86484,50.265303 z m -47.4201,0 v -23.71005 q 0,-9.95822 -7.11301,-16.59703 -6.63882,-7.11302 -16.597039,-7.11302 H 87.483657 q -11.855025,0 -11.855025,11.85503 v 47.4201 q 0,11.85502 11.855025,11.85502 h 11.855024 q 9.958219,0 16.597039,-6.63881 7.11301,-7.11302 7.11301,-17.07124 z m 208.22943,118.55025 q 0,29.40046 -20.86485,50.2653 -20.86484,20.86485 -50.2653,20.86485 -29.40046,0 -50.26531,-20.86485 -20.86484,-20.86484 -20.86484,-50.2653 h 47.4201 q 0,9.95822 6.63881,17.07123 7.11302,6.63882 17.07124,6.63882 17.54543,0 22.28744,-16.59704 1.42261,-6.16461 1.42261,-30.82306 0,-9.95822 -7.11302,-16.59704 -6.63881,-7.11301 -16.59703,-7.11301 -29.40046,0 -50.26531,-20.86484 -20.86484,-20.86485 -20.86484,-50.26531 v -23.71005 q 0,-29.40046 20.86484,-50.265303 20.86485,-20.864843 50.26531,-20.864843 29.40046,0 50.2653,20.864843 20.86485,20.864843 20.86485,50.265303 h -47.4201 q 0,-9.95822 -7.11302,-16.59703 -6.63881,-7.11302 -16.59703,-7.11302 -17.54544,0 -22.28745,16.59704 -1.4226,6.16461 -1.4226,30.82306 0,9.95822 6.63881,17.07124 7.11302,6.63881 17.07124,6.63881 29.40046,0 50.2653,20.86484 20.86485,20.86485 20.86485,50.26531 z m 113.38922,71.13015 h -47.4201 V 121.09871 q 0,-11.85503 -11.85502,-11.85503 h -35.56507 l 47.42009,-47.420096 h 47.4201 z"
         id="text1-8"
         aria-label="PS1" />
    </g>
  </g>
</svg>
