<?xml version="1.0" encoding="UTF-8" standalone="no"?>
<!-- Created with Inkscape (http://www.inkscape.org/) -->

<svg
   width="231.341pt"
   height="100pt"
   viewBox="0 0 81.611964 35.277777"
   version="1.1"
   id="svg1"
   inkscape:version="1.4.3 (1:1.4.3+202512261035+0d15f75042)"
   sodipodi:docname="ps1-logo-horizontal.svg"
   xmlns:inkscape="http://www.inkscape.org/namespaces/inkscape"
   xmlns:sodipodi="http://sodipodi.sourceforge.net/DTD/sodipodi-0.dtd"
   xmlns="http://www.w3.org/2000/svg"
   xmlns:svg="http://www.w3.org/2000/svg">
  <sodipodi:namedview
     id="namedview1"
     pagecolor="#ffffff"
     bordercolor="#666666"
     borderopacity="1.0"
     inkscape:showpageshadow="2"
     inkscape:pageopacity="0.0"
     inkscape:pagecheckerboard="0"
     inkscape:deskcolor="#d1d1d1"
     inkscape:document-units="pt"
     inkscape:zoom="3.9458701"
     inkscape:cx="81.731023"
     inkscape:cy="73.114419"
     inkscape:current-layer="layer1" />
  <defs
     id="defs1" />
  <g
     inkscape:label="Layer 1"
     inkscape:groupmode="layer"
     id="layer1">
    <rect
       style="fill:#ffffff;stroke-width:1.27;stroke-linecap:round;stroke-linejoin:round;paint-order:stroke fill markers"
       id="rect1"
       width="33.258404"
       height="33.258404"
       x="0.87169194"
       y="0.9387452" />
    <g
       id="g3"
       transform="matrix(1.0111941,0,0,1.0111941,-2.6082628,-2.2842816)">
      <g
         id="g18"
         transform="matrix(0.16520382,0,0,0.16520382,-3.4243679,-3.0425622)">
		<path
   fill="#009fc2"
   d="m 291.098,53.284 c 0,4.381 -1.555,8.126 -4.664,11.234 -3.108,3.107 -6.853,4.661 -11.232,4.661 h -2.648 c -1.768,0 -2.65,0.883 -2.65,2.65 V 95.671 H 259.308 V 37.39 c 0,-1.482 0.512,-2.736 1.537,-3.761 1.023,-1.024 2.277,-1.537 3.762,-1.537 h 10.596 c 4.38,0 8.124,1.556 11.232,4.663 3.109,3.109 4.664,6.852 4.664,11.232 v 5.297 z m -10.598,0 v -5.297 c 0,-1.482 -0.512,-2.736 -1.537,-3.761 -1.023,-1.025 -2.279,-1.537 -3.762,-1.537 h -2.648 c -1.768,0 -2.65,0.883 -2.65,2.647 v 10.598 c 0,1.766 0.883,2.649 2.65,2.649 h 2.648 c 1.482,0 2.738,-0.512 3.762,-1.536 1.026,-1.025 1.537,-2.277 1.537,-3.763 z"
   id="path1" />

		<path
   fill="#009fc2"
   d="m 327.729,79.776 c 0,4.381 -1.557,8.125 -4.664,11.234 -3.107,3.107 -6.852,4.661 -11.232,4.661 -4.379,0 -8.125,-1.554 -11.232,-4.661 -3.107,-3.109 -4.662,-6.854 -4.662,-11.234 V 32.092 h 10.598 v 47.685 c 0,1.483 0.512,2.737 1.535,3.762 1.025,1.023 2.279,1.536 3.762,1.536 1.483,0 2.738,-0.513 3.762,-1.536 1.025,-1.024 1.537,-2.278 1.537,-3.762 V 32.092 h 10.598 v 47.684 z"
   id="path2" />

		<path
   fill="#009fc2"
   d="M 388.551,95.672 H 377.955 V 45.337 c 0,-1.765 -0.883,-2.647 -2.648,-2.647 h -2.65 c -1.482,0 -2.736,0.512 -3.762,1.537 -1.023,1.024 -1.537,2.278 -1.537,3.761 V 95.673 H 356.762 V 47.987 c 0,-1.482 -0.512,-2.736 -1.537,-3.761 -1.023,-1.025 -2.279,-1.537 -3.762,-1.537 h -2.648 c -1.768,0 -2.65,0.883 -2.65,2.647 v 50.335 h -10.596 v -63.58 h 15.895 c 4.025,0 7.559,1.343 10.598,4.026 3.037,-2.684 6.568,-4.026 10.596,-4.026 h 15.895 v 63.581 z"
   id="path3" />

		<path
   fill="#009fc2"
   d="m 428.182,53.284 c 0,4.381 -1.555,8.126 -4.664,11.234 -3.107,3.107 -6.852,4.661 -11.23,4.661 h -2.648 c -1.768,0 -2.65,0.883 -2.65,2.65 V 95.671 H 396.394 V 37.39 c 0,-1.482 0.512,-2.736 1.537,-3.761 1.023,-1.024 2.277,-1.537 3.762,-1.537 h 10.596 c 4.379,0 8.123,1.556 11.23,4.663 3.109,3.109 4.664,6.852 4.664,11.232 v 5.297 z m -10.596,0 v -5.297 c 0,-1.482 -0.514,-2.736 -1.537,-3.761 -1.025,-1.025 -2.279,-1.537 -3.762,-1.537 h -2.648 c -1.768,0 -2.65,0.883 -2.65,2.647 v 10.598 c 0,1.766 0.883,2.649 2.65,2.649 h 2.648 c 1.482,0 2.736,-0.512 3.762,-1.536 1.023,-1.025 1.537,-2.277 1.537,-3.763 z"
   id="path4" />

		<path
   fill="#009fc2"
   d="m 445.619,95.672 h -10.596 v -63.58 h 10.596 z"
   id="path5" />

		<path
   fill="#009fc2"
   d="m 485.25,95.672 h -10.596 l -9.113,-27.338 c -0.426,-1.273 -0.777,-1.91 -1.061,-1.91 -0.211,0 -0.354,0.603 -0.424,1.804 V 95.672 H 453.46 v -63.58 h 10.596 l 9.324,27.869 c 0.283,0.918 0.566,1.378 0.85,1.378 0.281,0 0.424,-0.529 0.424,-1.589 V 32.092 h 10.596 z"
   id="path6" />

		<path
   fill="#009fc2"
   d="m 524.881,79.776 c 0,4.381 -1.555,8.125 -4.662,11.234 -3.109,3.107 -6.854,4.661 -11.232,4.661 -4.381,0 -8.125,-1.554 -11.232,-4.661 -3.109,-3.109 -4.664,-6.854 -4.664,-11.234 V 47.987 c 0,-4.381 1.555,-8.123 4.664,-11.232 3.107,-3.107 6.852,-4.663 11.232,-4.663 4.379,0 8.123,1.556 11.232,4.663 3.107,3.109 4.662,6.852 4.662,11.232 h -10.596 c 0,-1.482 -0.514,-2.736 -1.537,-3.761 -1.025,-1.025 -2.279,-1.537 -3.762,-1.537 -1.484,0 -2.738,0.512 -3.762,1.537 -1.025,1.024 -1.537,2.278 -1.537,3.761 v 31.789 c 0,1.483 0.514,2.737 1.543,3.762 1.025,1.023 2.285,1.536 3.773,1.536 1.488,0 2.746,-0.513 3.775,-1.536 1.025,-1.024 1.541,-2.278 1.541,-3.762 0,-1.059 0.035,-2.332 0.105,-3.815 0.07,-1.48 0.107,-2.437 0.107,-2.86 0,-1.555 -0.357,-2.594 -1.068,-3.125 -0.711,-0.53 -2.203,-0.796 -4.479,-0.796 V 58.584 h 15.895 v 21.192 z"
   id="path7" />

		<path
   fill="#009fc2"
   d="m 291.098,153.574 c 0,4.381 -1.555,8.125 -4.664,11.234 -3.108,3.107 -6.853,4.66 -11.232,4.66 -4.379,0 -8.124,-1.553 -11.232,-4.66 -3.108,-3.109 -4.662,-6.854 -4.662,-11.234 h 10.596 c 0,1.484 0.514,2.736 1.537,3.762 1.024,1.023 2.278,1.537 3.762,1.537 2.613,0 4.275,-1.234 4.98,-3.709 0.212,-0.92 0.318,-3.215 0.318,-6.887 0,-1.482 -0.512,-2.738 -1.537,-3.763 -1.023,-1.023 -2.279,-1.537 -3.762,-1.537 -4.379,0 -8.124,-1.553 -11.232,-4.66 -3.108,-3.107 -4.662,-6.854 -4.662,-11.234 v -5.297 c 0,-4.381 1.554,-8.122 4.662,-11.232 3.108,-3.107 6.854,-4.663 11.232,-4.663 4.38,0 8.124,1.556 11.232,4.663 3.109,3.11 4.664,6.852 4.664,11.232 H 280.5 c 0,-1.482 -0.512,-2.736 -1.537,-3.761 -1.023,-1.025 -2.279,-1.537 -3.762,-1.537 -2.613,0 -4.273,1.234 -4.98,3.708 -0.211,0.919 -0.318,3.215 -0.318,6.887 0,1.484 0.514,2.738 1.537,3.764 1.024,1.023 2.278,1.535 3.762,1.535 4.38,0 8.124,1.555 11.232,4.662 3.109,3.109 4.664,6.854 4.664,11.234 z"
   id="path8" />

		<path
   fill="#009fc2"
   d="m 326.729,116.487 h -7.949 c -1.766,0 -2.648,0.883 -2.648,2.647 v 50.334 h -10.596 v -50.334 c 0,-1.765 -0.885,-2.647 -2.65,-2.647 h -7.947 V 105.89 h 31.791 v 10.597 z"
   id="path9" />

		<path
   fill="#009fc2"
   d="m 363.357,169.469 h -10.596 v -23.842 c 0,-1.765 -0.885,-2.65 -2.65,-2.65 h -5.297 c -1.768,0 -2.65,0.885 -2.65,2.65 v 23.842 h -10.596 v -47.684 c 0,-4.381 1.555,-8.122 4.662,-11.232 3.109,-3.107 6.854,-4.663 11.232,-4.663 4.381,0 8.125,1.556 11.232,4.663 3.109,3.11 4.662,6.852 4.662,11.232 v 47.684 z m -10.595,-39.736 v -7.948 c 0,-1.482 -0.512,-2.736 -1.537,-3.761 -1.023,-1.025 -2.279,-1.537 -3.762,-1.537 -1.484,0 -2.736,0.512 -3.762,1.537 -1.023,1.024 -1.537,2.278 -1.537,3.761 v 7.948 c 0,1.766 0.883,2.648 2.65,2.648 h 5.297 c 1.766,0 2.651,-0.882 2.651,-2.648 z"
   id="path10" />

		<path
   fill="#009fc2"
   d="m 400.988,116.487 h -7.947 c -1.768,0 -2.648,0.883 -2.648,2.647 v 50.334 h -10.598 v -50.334 c 0,-1.765 -0.883,-2.647 -2.648,-2.647 H 369.2 V 105.89 h 31.789 v 10.597 z"
   id="path11" />

		<path
   fill="#009fc2"
   d="M 417.426,169.469 H 406.83 V 105.89 h 10.596 z"
   id="path12" />

		<path
   fill="#009fc2"
   d="m 458.057,153.574 c 0,4.381 -1.555,8.125 -4.662,11.234 -3.109,3.107 -6.854,4.66 -11.232,4.66 -4.381,0 -8.125,-1.553 -11.232,-4.66 -3.109,-3.109 -4.662,-6.854 -4.662,-11.234 v -31.789 c 0,-4.381 1.553,-8.122 4.662,-11.232 3.107,-3.107 6.852,-4.663 11.232,-4.663 4.379,0 8.123,1.556 11.232,4.663 3.107,3.11 4.662,6.852 4.662,11.232 z m -10.596,0 v -31.789 c 0,-1.482 -0.514,-2.736 -1.537,-3.761 -1.025,-1.025 -2.279,-1.537 -3.762,-1.537 -1.484,0 -2.736,0.512 -3.762,1.537 -1.025,1.024 -1.537,2.278 -1.537,3.761 v 31.789 c 0,1.484 0.512,2.736 1.537,3.762 1.025,1.023 2.277,1.537 3.762,1.537 1.482,0 2.736,-0.514 3.762,-1.537 1.023,-1.025 1.537,-2.277 1.537,-3.762 z"
   id="path13" />

		<path
   fill="#009fc2"
   d="m 498.688,169.469 h -10.596 l -9.113,-27.337 c -0.424,-1.273 -0.777,-1.91 -1.061,-1.91 -0.211,0 -0.354,0.604 -0.424,1.803 v 27.445 h -10.596 v -63.58 h 10.596 l 9.326,27.869 c 0.281,0.92 0.564,1.379 0.846,1.379 0.283,0 0.426,-0.529 0.426,-1.59 V 105.89 h 10.596 z"
   id="path14" />

		<path
   fill="#009fc2"
   d="m 519.125,137.68 h -10.596 v -13.598 h 10.596 z m 0,31.789 h -10.596 v -13.596 h 10.596 z"
   id="path15" />

		<path
   fill="#009fc2"
   d="m 291.098,227.373 c 0,4.381 -1.555,8.125 -4.664,11.232 -3.108,3.109 -6.853,4.662 -11.232,4.662 -4.379,0 -8.124,-1.553 -11.232,-4.662 -3.108,-3.107 -4.662,-6.852 -4.662,-11.232 v -31.789 c 0,-4.381 1.554,-8.123 4.662,-11.232 3.108,-3.107 6.854,-4.664 11.232,-4.664 4.38,0 8.124,1.557 11.232,4.664 3.109,3.109 4.664,6.852 4.664,11.232 z m -10.598,0 v -31.789 c 0,-1.484 -0.512,-2.738 -1.537,-3.762 -1.023,-1.025 -2.279,-1.537 -3.762,-1.537 -1.483,0 -2.737,0.512 -3.762,1.537 -1.023,1.023 -1.537,2.277 -1.537,3.762 v 31.789 c 0,1.482 0.514,2.736 1.537,3.76 1.024,1.025 2.278,1.537 3.762,1.537 1.482,0 2.738,-0.512 3.762,-1.537 1.026,-1.024 1.537,-2.278 1.537,-3.76 z"
   id="path16" />

		<path
   fill="#009fc2"
   d="m 330.729,243.268 h -10.598 l -9.113,-27.338 c -0.424,-1.273 -0.777,-1.91 -1.059,-1.91 -0.213,0 -0.355,0.602 -0.424,1.803 v 27.445 h -10.598 v -63.58 h 10.598 l 9.324,27.869 c 0.281,0.918 0.564,1.379 0.848,1.379 0.281,0 0.424,-0.529 0.424,-1.59 v -27.658 h 10.598 z"
   id="path17" />

		<path
   fill="#009fc2"
   d="m 370.357,190.285 h -18.543 c -1.768,0 -2.65,0.883 -2.65,2.648 v 10.596 c 0,1.768 0.883,2.65 2.65,2.65 h 13.246 v 10.596 h -13.246 c -1.768,0 -2.65,0.883 -2.65,2.648 v 10.598 c 0,1.768 0.883,2.648 2.65,2.648 h 18.543 v 10.598 h -26.49 c -1.484,0 -2.738,-0.512 -3.762,-1.537 -1.025,-1.025 -1.537,-2.277 -1.537,-3.76 v -52.984 c 0,-1.482 0.512,-2.738 1.537,-3.762 1.023,-1.023 2.277,-1.537 3.762,-1.537 h 26.49 z"
   id="path18" />

	</g>
      <g
         id="g1">
        <g
           id="g27"
           transform="matrix(0.16520382,0,0,0.16520382,-3.4243679,-3.0425622)">
		<g
   id="g26">
			<path
   fill="#d11242"
   d="m 141.553,179.264 c -5.887,0.006 -10.656,4.779 -10.656,10.656 0,5.893 4.769,10.66 10.656,10.66 5.887,0 10.661,-4.768 10.661,-10.66 0,-5.877 -4.774,-10.656 -10.661,-10.656 z"
   id="path19" />

			<path
   fill="#d11242"
   d="m 141.553,95.636 c 5.887,0 10.661,-4.769 10.661,-10.661 0,-5.887 -4.774,-10.656 -10.661,-10.656 -5.887,0 -10.661,4.769 -10.661,10.656 0,5.893 4.774,10.661 10.661,10.661 z"
   id="path20" />

			<path
   fill="#d11242"
   d="m 90.78,154.457 c -5.101,2.939 -6.847,9.455 -3.901,14.561 2.941,5.096 9.46,6.842 14.562,3.906 5.096,-2.951 6.842,-9.465 3.901,-14.572 -2.946,-5.09 -9.466,-6.842 -14.562,-3.895 z"
   id="path21" />

			<path
   fill="#d11242"
   d="m 141.553,117.771 c -10.868,0 -19.68,8.816 -19.68,19.685 0,10.857 8.812,19.679 19.68,19.679 10.868,0 19.679,-8.822 19.679,-19.679 0,-10.869 -8.811,-19.685 -19.679,-19.685 z"
   id="path22" />

			<path
   fill="#d11242"
   d="m 101.441,101.976 c -5.101,-2.936 -11.621,-1.189 -14.562,3.906 -2.946,5.102 -1.2,11.621 3.901,14.557 5.096,2.952 11.616,1.195 14.562,-3.896 2.941,-5.101 1.195,-11.621 -3.901,-14.567 z"
   id="path23" />

			<path
   fill="#d11242"
   d="M 241.799,32.467 H 41.308 c -2.744,0 -4.967,2.225 -4.967,4.968 v 200.491 c 0,2.742 2.223,4.967 4.967,4.967 H 241.8 c 2.744,0 4.967,-2.225 4.967,-4.967 V 37.435 c -0.001,-2.743 -2.224,-4.968 -4.968,-4.968 z m -31.196,73.994 c 0,0 -0.027,-0.011 -0.077,-0.033 -0.054,-0.017 -0.109,-0.027 -0.164,-0.044 -0.78,-0.174 -3.208,-0.316 -3.693,4.256 0.196,6.994 -3.345,13.874 -9.832,17.616 -5.02,2.893 -10.787,3.328 -15.904,1.676 -1.146,-0.295 -5.729,-0.938 -6.58,7.463 l -0.005,-0.016 c 0,0.021 0,0.049 0,0.076 0,0.017 0,0.039 0,0.065 l 0.011,-0.021 c 0.862,8.528 5.565,7.737 6.624,7.447 0.055,-0.011 0.114,-0.027 0.169,-0.044 0.027,-0.011 0.044,-0.021 0.044,-0.021 5.052,-1.55 10.704,-1.086 15.642,1.767 6.465,3.727 10.006,10.58 9.832,17.535 0.562,5.539 3.939,4.25 3.939,4.25 l -0.011,0.018 c 2.581,-0.633 5.401,-0.328 7.889,1.107 5.096,2.936 6.842,9.461 3.9,14.566 -2.946,5.096 -9.465,6.832 -14.562,3.896 -2.488,-1.436 -4.163,-3.721 -4.899,-6.285 l -0.005,0.01 c 0,0 0,-0.027 -0.016,-0.076 -0.011,-0.055 -0.027,-0.109 -0.044,-0.158 -0.234,-0.752 -1.32,-2.945 -5.538,-1.068 -5.958,3.66 -13.684,4.037 -20.165,0.289 -5.02,-2.902 -8.276,-7.682 -9.4,-12.932 -0.316,-1.145 -2.057,-5.439 -9.755,-1.975 l 0.005,-0.016 c -0.038,0.027 -0.076,0.049 -0.114,0.076 h 0.016 c -6.956,5.008 -3.917,8.691 -3.137,9.461 0.044,0.037 0.082,0.086 0.125,0.119 0.017,0.016 0.027,0.027 0.033,0.033 3.874,3.596 6.302,8.729 6.302,14.42 0,7.463 -4.157,13.961 -10.279,17.289 -4.512,3.258 -1.708,5.543 -1.708,5.543 h -0.021 c 1.844,1.916 2.99,4.508 2.99,7.383 0,5.887 -4.774,10.654 -10.661,10.654 -5.887,0 -10.656,-4.768 -10.656,-10.654 0,-2.871 1.141,-5.467 2.984,-7.383 0.011,-0.016 0.033,-0.033 0.06,-0.059 0.033,-0.039 0.071,-0.072 0.104,-0.109 0.535,-0.584 1.898,-2.625 -1.839,-5.336 -6.149,-3.328 -10.333,-9.838 -10.333,-17.328 0,-5.795 2.51,-11 6.503,-14.605 0.829,-0.84 3.677,-4.496 -3.175,-9.428 h 0.011 c -0.038,-0.027 -0.076,-0.039 -0.114,-0.076 l 0.011,0.016 c -7.818,-3.514 -9.488,0.971 -9.766,2.02 -0.011,0.055 -0.027,0.113 -0.038,0.168 -0.005,0.039 -0.011,0.045 -0.011,0.045 -1.179,5.15 -4.409,9.82 -9.346,12.674 -6.46,3.736 -14.158,3.377 -20.105,-0.268 -5.074,-2.27 -5.652,1.287 -5.652,1.287 l -0.011,-0.016 c -0.731,2.559 -2.412,4.85 -4.894,6.285 -5.102,2.936 -11.621,1.199 -14.562,-3.896 -2.946,-5.105 -1.195,-11.631 3.901,-14.566 1.675,-0.967 3.503,-1.42 5.303,-1.42 0.873,0 1.741,0.105 2.581,0.312 0,0 0.039,0.01 0.104,0.037 0.038,0.006 0.076,0.018 0.114,0.018 0.758,0.18 3.225,0.365 3.716,-4.256 -0.197,-6.984 3.344,-13.863 9.826,-17.611 5.025,-2.892 10.792,-3.329 15.904,-1.669 1.14,0.294 5.734,0.943 6.58,-7.47 l 0.005,0.021 c 0,-0.026 0,-0.049 0,-0.065 0,-0.027 0,-0.055 0,-0.076 l -0.005,0.021 c -0.862,-8.538 -5.57,-7.736 -6.629,-7.447 -0.055,0.006 -0.109,0.027 -0.164,0.044 -0.033,0.011 -0.049,0.022 -0.049,0.022 -5.046,1.549 -10.704,1.085 -15.642,-1.764 -6.459,-3.726 -10,-10.578 -9.832,-17.54 -0.556,-5.543 -3.934,-4.255 -3.934,-4.255 l 0.005,-0.011 c -2.581,0.639 -5.396,0.333 -7.884,-1.107 -5.096,-2.935 -6.847,-9.466 -3.901,-14.567 2.941,-5.085 9.46,-6.836 14.562,-3.896 2.482,1.43 4.163,3.727 4.894,6.285 l 0.005,-0.011 c 0,0 0.005,0.038 0.021,0.115 0.011,0.033 0.027,0.071 0.033,0.109 0.234,0.742 1.304,2.968 5.548,1.08 5.953,-3.655 13.678,-4.037 20.16,-0.289 5.02,2.908 8.282,7.677 9.406,12.931 0.311,1.146 2.046,5.439 9.75,1.97 l -0.005,0.021 c 0.038,-0.027 0.076,-0.054 0.12,-0.065 h -0.021 c 6.956,-5.014 3.917,-8.691 3.143,-9.466 -0.044,-0.044 -0.087,-0.093 -0.131,-0.12 -0.022,-0.027 -0.039,-0.038 -0.039,-0.038 -3.868,-3.601 -6.296,-8.729 -6.296,-14.425 0,-7.458 4.157,-13.945 10.279,-17.285 4.512,-3.246 1.708,-5.532 1.708,-5.532 h 0.021 c -1.844,-1.915 -2.99,-4.512 -2.99,-7.393 0,-5.881 4.774,-10.655 10.661,-10.655 5.887,0 10.661,4.774 10.661,10.655 0,2.88 -1.146,5.478 -2.99,7.393 h 0.011 c 0,0 -0.038,0.027 -0.098,0.077 -0.017,0.027 -0.033,0.043 -0.049,0.06 -0.507,0.535 -1.997,2.597 1.817,5.369 6.149,3.317 10.328,9.826 10.328,17.312 0,5.789 -2.504,11.004 -6.493,14.605 -0.829,0.834 -3.693,4.49 3.165,9.444 h -0.016 c 0.043,0.011 0.082,0.038 0.125,0.065 l -0.011,-0.021 c 7.796,3.508 9.477,-0.928 9.761,-2.008 0.016,-0.065 0.033,-0.12 0.049,-0.191 0,-0.011 0.005,-0.033 0.005,-0.033 1.178,-5.15 4.408,-9.815 9.346,-12.658 6.46,-3.737 14.158,-3.377 20.105,0.251 5.074,2.275 5.647,-1.288 5.647,-1.288 l 0.011,0.021 c 0.737,-2.559 2.412,-4.855 4.899,-6.285 5.096,-2.94 11.616,-1.189 14.562,3.907 2.941,5.09 1.195,11.621 -3.9,14.556 -2.488,1.44 -5.309,1.746 -7.889,1.107 z"
   id="path24" />

			<path
   fill="#d11242"
   d="m 181.67,172.924 c 5.101,2.936 11.616,1.189 14.562,-3.906 2.941,-5.096 1.195,-11.621 -3.901,-14.561 -5.101,-2.947 -11.621,-1.195 -14.562,3.895 -2.946,5.107 -1.195,11.621 3.901,14.572 z"
   id="path25" />

			<path
   fill="#d11242"
   d="m 181.67,101.976 c -5.096,2.946 -6.847,9.466 -3.901,14.567 2.946,5.09 9.46,6.847 14.562,3.896 5.096,-2.936 6.842,-9.455 3.901,-14.557 -2.946,-5.095 -9.466,-6.841 -14.562,-3.906 z"
   id="path26" />

		</g>

	</g>
      </g>
    </g>
  </g>
</svg>
