<?xml version="1.0" encoding="UTF-8" standalone="no"?>
<svg
   width="600"
   viewBox="0 0 600 240"
   version="1.1"
   id="svg10"
   height="240"
   xmlns="http://www.w3.org/2000/svg"
   xmlns:svg="http://www.w3.org/2000/svg">
  <defs
     id="defs2">
    <!-- Both clips use the EXACT same wave curve — above traces it backwards to close the top shape -->
    <clipPath
       id="clip-above">
      <path
         d="m 0,0 h 680 v 110 q -57,-10 -114,0 -57,10 -114,0 -57,-10 -112,0 -55,10 -112,0 -57,-10 -114,0 -57,10 -114,0 z"
         id="path1" />
    </clipPath>
    <clipPath
       id="clip-below">
      <path
         d="m 0,110 q 57,10 114,0 57,-10 114,0 57,10 112,0 55,-10 112,0 57,10 114,0 57,-10 114,0 V 260 H 0 Z"
         id="path2" />
    </clipPath>
  </defs>
  <rect
     style="fill:#1a1a1a;fill-opacity:1;stroke:none;stroke-width:10.418"
     id="rect10"
     width="600"
     height="240"
     x="0"
     y="0" />
  <!-- Water fill below wave -->
  <path
     d="M 0,94.846194 C 13.869981,94.706961 23.791236,94.353408 52.51046,90.25 c 38.192489,-5.45695 76,-6.66667 114,0 38,6.66667 75.33333,6.66667 112,0 36.66667,-6.66667 74,-6.66667 112,0 38,6.66667 76,6.66667 114,0 38,-6.66667 57.821,-6.88764 95.48954,-2.60746 V 240 H 0 Z"
     fill="#0F6E56"
     opacity="0.08"
     style="color:#ffffff;font-weight:400;font-size:16px;font-family:'Anthropic Sans', '-apple-system', BlinkMacSystemFont, 'Segoe UI', sans-serif;dominant-baseline:auto;text-anchor:start;opacity:0.08;fill:#0f6e56;stroke:none;stroke-width:1px;stroke-linecap:butt;stroke-linejoin:miter"
     id="path3" />
  <!-- PS1 mark: center is (129.4, 119) in original coords. At scale 0.618: rendered size ~160x146, rendered center at (79.97, 73.54) from transform origin. translate(260.03, 36.46) places center at (340, 110) -->
  <!-- Above water: PS1 red -->
  <!-- Below water: teal, submerged -->
  <g
     id="g10"
     transform="translate(-39.973551,-16.923651)">
    <g
       clip-path="url(#clip-above)"
       transform="matrix(0.618,0,0,0.618,260,36.5)"
       style="color:#ffffff;font-weight:400;font-size:16px;font-family:'Anthropic Sans', '-apple-system', BlinkMacSystemFont, 'Segoe UI', sans-serif;dominant-baseline:auto;text-anchor:start;opacity:1;fill:#000000;stroke:none;stroke-width:1px;stroke-linecap:butt;stroke-linejoin:miter"
       id="g4">
      <path
         fill="#D11242"
         d="m 206.339,151.345 c -2.488,-1.436 -5.309,-1.74 -7.891,-1.107 l 0.012,-0.018 c 0,0 -3.377,1.289 -3.939,-4.25 0.174,-6.955 -3.367,-13.809 -9.832,-17.535 -4.938,-2.853 -10.59,-3.317 -15.642,-1.767 0,0 -0.017,0.01 -0.044,0.021 -0.055,0.016 -0.114,0.033 -0.169,0.043 -1.059,0.29 -5.762,1.081 -6.624,-7.447 l -0.01,0.021 c 0,-0.026 0,-0.049 0,-0.065 0,-0.027 0,-0.055 0,-0.076 l 0.005,0.016 c 0.851,-8.401 5.435,-7.758 6.579,-7.463 5.118,1.652 10.885,1.217 15.904,-1.676 6.488,-3.742 10.029,-10.622 9.832,-17.616 0.486,-4.572 2.914,-4.43 3.693,-4.256 0.055,0.017 0.109,0.027 0.164,0.044 0.049,0.021 0.076,0.033 0.076,0.033 l -0.006,-0.011 c 2.582,0.639 5.402,0.333 7.891,-1.107 5.096,-2.935 6.842,-9.466 3.9,-14.556 -2.947,-5.096 -9.467,-6.847 -14.562,-3.907 -2.488,1.43 -4.162,3.727 -4.898,6.285 l -0.012,-0.021 c 0,0 -0.572,3.562 -5.646,1.288 -5.947,-3.628 -13.646,-3.988 -20.105,-0.251 -4.938,2.842 -8.168,7.507 -9.346,12.658 0,0 -0.006,0.021 -0.006,0.033 -0.016,0.071 -0.033,0.125 -0.049,0.191 -0.283,1.08 -1.965,5.516 -9.761,2.008 l 0.011,0.021 c -0.043,-0.027 -0.082,-0.054 -0.125,-0.065 h 0.016 c -6.857,-4.954 -3.993,-8.609 -3.164,-9.444 3.988,-3.601 6.492,-8.817 6.492,-14.605 0,-7.486 -4.179,-13.995 -10.328,-17.312 -3.812,-2.771 -2.324,-4.833 -1.816,-5.369 0.017,-0.016 0.033,-0.033 0.049,-0.06 0.061,-0.049 0.099,-0.077 0.099,-0.077 h -0.011 c 1.844,-1.915 2.99,-4.512 2.99,-7.393 0,-5.881 -4.774,-10.655 -10.661,-10.655 -5.888,0 -10.661,4.774 -10.661,10.655 0,2.88 1.146,5.478 2.99,7.393 h -0.021 c 0,0 2.804,2.286 -1.709,5.532 -6.121,3.339 -10.278,9.826 -10.278,17.285 0,5.696 2.428,10.824 6.296,14.425 0,0 0.017,0.011 0.039,0.038 0.043,0.027 0.086,0.076 0.131,0.12 0.773,0.774 3.812,4.452 -3.143,9.466 h 0.021 c -0.044,0.011 -0.082,0.038 -0.12,0.065 l 0.005,-0.021 c -7.703,3.47 -9.438,-0.824 -9.75,-1.97 C 102.082,83.632 98.819,78.864 93.8,75.955 87.319,72.207 79.593,72.589 73.641,76.244 69.396,78.132 68.327,75.906 68.092,75.164 68.086,75.126 68.071,75.088 68.059,75.055 68.043,74.978 68.038,74.94 68.038,74.94 l -0.006,0.011 c -0.731,-2.559 -2.411,-4.855 -4.894,-6.285 -5.102,-2.94 -11.621,-1.189 -14.562,3.896 -2.946,5.102 -1.195,11.632 3.901,14.567 2.488,1.44 5.303,1.746 7.884,1.107 l -0.005,0.011 c 0,0 3.377,-1.288 3.934,4.255 -0.169,6.962 3.372,13.814 9.832,17.54 4.938,2.849 10.596,3.312 15.642,1.764 0,0 0.018,-0.012 0.05,-0.022 0.055,-0.017 0.108,-0.038 0.163,-0.044 1.059,-0.289 5.768,-1.091 6.629,7.447 l 0.006,-0.021 c 0,0.021 0,0.049 0,0.076 0,0.017 0,0.039 0,0.065 l -0.006,-0.021 c -0.846,8.413 -5.439,7.764 -6.579,7.47 -5.112,-1.66 -10.88,-1.223 -15.904,1.669 -6.481,3.748 -10.022,10.627 -9.826,17.611 -0.491,4.621 -2.958,4.436 -3.716,4.256 -0.038,0 -0.076,-0.012 -0.114,-0.018 -0.065,-0.027 -0.104,-0.037 -0.104,-0.037 -0.84,-0.207 -1.708,-0.312 -2.581,-0.312 -1.8,0 -3.628,0.453 -5.303,1.42 -5.096,2.936 -6.847,9.461 -3.901,14.566 2.941,5.096 9.46,6.832 14.562,3.896 2.482,-1.436 4.163,-3.727 4.894,-6.285 l 0.012,0.016 c 0,0 0.578,-3.557 5.652,-1.287 5.946,3.645 13.645,4.004 20.104,0.268 4.938,-2.854 8.167,-7.523 9.347,-12.674 0,0 0.005,-0.006 0.01,-0.045 0.012,-0.055 0.027,-0.113 0.039,-0.168 0.277,-1.049 1.947,-5.533 9.766,-2.02 l -0.011,-0.016 c 0.038,0.037 0.076,0.049 0.114,0.076 h -0.011 c 6.853,4.932 4.005,8.588 3.175,9.428 -3.993,3.605 -6.503,8.811 -6.503,14.605 0,7.49 4.185,14 10.333,17.328 3.738,2.711 2.374,4.752 1.84,5.336 -0.033,0.037 -0.072,0.07 -0.104,0.109 -0.027,0.025 -0.049,0.043 -0.06,0.059 -1.844,1.916 -2.984,4.512 -2.984,7.383 0,5.887 4.768,10.654 10.655,10.654 5.887,0 10.661,-4.768 10.661,-10.654 0,-2.875 -1.146,-5.467 -2.99,-7.383 h 0.021 c 0,0 -2.805,-2.285 1.708,-5.543 6.122,-3.328 10.278,-9.826 10.278,-17.289 0,-5.691 -2.428,-10.824 -6.301,-14.42 -0.006,-0.006 -0.017,-0.018 -0.033,-0.033 -0.043,-0.033 -0.082,-0.082 -0.125,-0.119 -0.78,-0.77 -3.819,-4.453 3.137,-9.461 h -0.016 c 0.037,-0.027 0.076,-0.049 0.113,-0.076 l -0.005,0.016 c 7.698,-3.465 9.438,0.83 9.755,1.975 1.125,5.25 4.381,10.029 9.4,12.932 6.482,3.748 14.207,3.371 20.166,-0.289 4.217,-1.877 5.303,0.316 5.537,1.068 0.018,0.049 0.033,0.104 0.045,0.158 0.016,0.049 0.016,0.076 0.016,0.076 l 0.006,-0.01 c 0.736,2.564 2.41,4.85 4.898,6.285 5.096,2.936 11.615,1.199 14.562,-3.896 2.94,-5.105 1.194,-11.63 -3.902,-14.566 z M 169.521,83.763 c 5.096,-2.936 11.616,-1.189 14.562,3.906 2.941,5.102 1.195,11.621 -3.9,14.557 -5.102,2.952 -11.616,1.195 -14.562,-3.896 -2.946,-5.101 -1.196,-11.621 3.9,-14.567 z M 93.193,98.33 c -2.946,5.09 -9.466,6.847 -14.562,3.896 -5.102,-2.936 -6.848,-9.455 -3.901,-14.557 2.94,-5.096 9.46,-6.842 14.562,-3.906 5.096,2.946 6.842,9.466 3.901,14.567 z m -3.901,56.38 c -5.102,2.936 -11.621,1.189 -14.562,-3.906 -2.946,-5.105 -1.2,-11.621 3.901,-14.561 5.096,-2.947 11.615,-1.195 14.562,3.895 2.941,5.108 1.195,11.621 -3.901,14.572 z m 40.112,-98.604 c 5.887,0 10.661,4.769 10.661,10.656 0,5.892 -4.774,10.661 -10.661,10.661 -5.888,0 -10.661,-4.769 -10.661,-10.661 0,-5.887 4.774,-10.656 10.661,-10.656 z m 0,126.261 c -5.888,0 -10.655,-4.768 -10.655,-10.66 0,-5.877 4.768,-10.65 10.655,-10.656 5.887,0 10.661,4.779 10.661,10.656 0,5.892 -4.774,10.66 -10.661,10.66 z m 0,-43.446 c -10.868,0 -19.68,-8.822 -19.68,-19.679 0,-10.868 8.812,-19.685 19.68,-19.685 10.868,0 19.679,8.816 19.679,19.685 0,10.857 -8.811,19.679 -19.679,19.679 z m 54.679,11.883 c -2.945,5.096 -9.461,6.842 -14.562,3.906 -5.097,-2.951 -6.847,-9.465 -3.901,-14.572 2.941,-5.09 9.461,-6.842 14.562,-3.895 5.096,2.94 6.842,9.465 3.901,14.561 z"
         style="color:#ffffff;font-weight:400;font-size:16px;font-family:'Anthropic Sans', '-apple-system', BlinkMacSystemFont, 'Segoe UI', sans-serif;dominant-baseline:auto;text-anchor:start;opacity:1;fill:#d11242;stroke:none;stroke-width:1px;stroke-linecap:butt;stroke-linejoin:miter"
         id="path4" />
    </g>
    <g
       clip-path="url(#clip-below)"
       transform="matrix(0.618,0,0,0.618,260,36.5)"
       opacity="0.5"
       style="color:#ffffff;font-weight:400;font-size:16px;font-family:'Anthropic Sans', '-apple-system', BlinkMacSystemFont, 'Segoe UI', sans-serif;dominant-baseline:auto;text-anchor:start;opacity:0.5;fill:#000000;stroke:none;stroke-width:1px;stroke-linecap:butt;stroke-linejoin:miter"
       id="g5">
      <path
         fill="#0F6E56"
         d="m 206.339,151.345 c -2.488,-1.436 -5.309,-1.74 -7.891,-1.107 l 0.012,-0.018 c 0,0 -3.377,1.289 -3.939,-4.25 0.174,-6.955 -3.367,-13.809 -9.832,-17.535 -4.938,-2.853 -10.59,-3.317 -15.642,-1.767 0,0 -0.017,0.01 -0.044,0.021 -0.055,0.016 -0.114,0.033 -0.169,0.043 -1.059,0.29 -5.762,1.081 -6.624,-7.447 l -0.01,0.021 c 0,-0.026 0,-0.049 0,-0.065 0,-0.027 0,-0.055 0,-0.076 l 0.005,0.016 c 0.851,-8.401 5.435,-7.758 6.579,-7.463 5.118,1.652 10.885,1.217 15.904,-1.676 6.488,-3.742 10.029,-10.622 9.832,-17.616 0.486,-4.572 2.914,-4.43 3.693,-4.256 0.055,0.017 0.109,0.027 0.164,0.044 0.049,0.021 0.076,0.033 0.076,0.033 l -0.006,-0.011 c 2.582,0.639 5.402,0.333 7.891,-1.107 5.096,-2.935 6.842,-9.466 3.9,-14.556 -2.947,-5.096 -9.467,-6.847 -14.562,-3.907 -2.488,1.43 -4.162,3.727 -4.898,6.285 l -0.012,-0.021 c 0,0 -0.572,3.562 -5.646,1.288 -5.947,-3.628 -13.646,-3.988 -20.105,-0.251 -4.938,2.842 -8.168,7.507 -9.346,12.658 0,0 -0.006,0.021 -0.006,0.033 -0.016,0.071 -0.033,0.125 -0.049,0.191 -0.283,1.08 -1.965,5.516 -9.761,2.008 l 0.011,0.021 c -0.043,-0.027 -0.082,-0.054 -0.125,-0.065 h 0.016 c -6.857,-4.954 -3.993,-8.609 -3.164,-9.444 3.988,-3.601 6.492,-8.817 6.492,-14.605 0,-7.486 -4.179,-13.995 -10.328,-17.312 -3.812,-2.771 -2.324,-4.833 -1.816,-5.369 0.017,-0.016 0.033,-0.033 0.049,-0.06 0.061,-0.049 0.099,-0.077 0.099,-0.077 h -0.011 c 1.844,-1.915 2.99,-4.512 2.99,-7.393 0,-5.881 -4.774,-10.655 -10.661,-10.655 -5.888,0 -10.661,4.774 -10.661,10.655 0,2.88 1.146,5.478 2.99,7.393 h -0.021 c 0,0 2.804,2.286 -1.709,5.532 -6.121,3.339 -10.278,9.826 -10.278,17.285 0,5.696 2.428,10.824 6.296,14.425 0,0 0.017,0.011 0.039,0.038 0.043,0.027 0.086,0.076 0.131,0.12 0.773,0.774 3.812,4.452 -3.143,9.466 h 0.021 c -0.044,0.011 -0.082,0.038 -0.12,0.065 l 0.005,-0.021 c -7.703,3.47 -9.438,-0.824 -9.75,-1.97 C 102.082,83.632 98.819,78.864 93.8,75.955 87.319,72.207 79.593,72.589 73.641,76.244 69.396,78.132 68.327,75.906 68.092,75.164 68.086,75.126 68.071,75.088 68.059,75.055 68.043,74.978 68.038,74.94 68.038,74.94 l -0.006,0.011 c -0.731,-2.559 -2.411,-4.855 -4.894,-6.285 -5.102,-2.94 -11.621,-1.189 -14.562,3.896 -2.946,5.102 -1.195,11.632 3.901,14.567 2.488,1.44 5.303,1.746 7.884,1.107 l -0.005,0.011 c 0,0 3.377,-1.288 3.934,4.255 -0.169,6.962 3.372,13.814 9.832,17.54 4.938,2.849 10.596,3.312 15.642,1.764 0,0 0.018,-0.012 0.05,-0.022 0.055,-0.017 0.108,-0.038 0.163,-0.044 1.059,-0.289 5.768,-1.091 6.629,7.447 l 0.006,-0.021 c 0,0.021 0,0.049 0,0.076 0,0.017 0,0.039 0,0.065 l -0.006,-0.021 c -0.846,8.413 -5.439,7.764 -6.579,7.47 -5.112,-1.66 -10.88,-1.223 -15.904,1.669 -6.481,3.748 -10.022,10.627 -9.826,17.611 -0.491,4.621 -2.958,4.436 -3.716,4.256 -0.038,0 -0.076,-0.012 -0.114,-0.018 -0.065,-0.027 -0.104,-0.037 -0.104,-0.037 -0.84,-0.207 -1.708,-0.312 -2.581,-0.312 -1.8,0 -3.628,0.453 -5.303,1.42 -5.096,2.936 -6.847,9.461 -3.901,14.566 2.941,5.096 9.46,6.832 14.562,3.896 2.482,-1.436 4.163,-3.727 4.894,-6.285 l 0.012,0.016 c 0,0 0.578,-3.557 5.652,-1.287 5.946,3.645 13.645,4.004 20.104,0.268 4.938,-2.854 8.167,-7.523 9.347,-12.674 0,0 0.005,-0.006 0.01,-0.045 0.012,-0.055 0.027,-0.113 0.039,-0.168 0.277,-1.049 1.947,-5.533 9.766,-2.02 l -0.011,-0.016 c 0.038,0.037 0.076,0.049 0.114,0.076 h -0.011 c 6.853,4.932 4.005,8.588 3.175,9.428 -3.993,3.605 -6.503,8.811 -6.503,14.605 0,7.49 4.185,14 10.333,17.328 3.738,2.711 2.374,4.752 1.84,5.336 -0.033,0.037 -0.072,0.07 -0.104,0.109 -0.027,0.025 -0.049,0.043 -0.06,0.059 -1.844,1.916 -2.984,4.512 -2.984,7.383 0,5.887 4.768,10.654 10.655,10.654 5.887,0 10.661,-4.768 10.661,-10.654 0,-2.875 -1.146,-5.467 -2.99,-7.383 h 0.021 c 0,0 -2.805,-2.285 1.708,-5.543 6.122,-3.328 10.278,-9.826 10.278,-17.289 0,-5.691 -2.428,-10.824 -6.301,-14.42 -0.006,-0.006 -0.017,-0.018 -0.033,-0.033 -0.043,-0.033 -0.082,-0.082 -0.125,-0.119 -0.78,-0.77 -3.819,-4.453 3.137,-9.461 h -0.016 c 0.037,-0.027 0.076,-0.049 0.113,-0.076 l -0.005,0.016 c 7.698,-3.465 9.438,0.83 9.755,1.975 1.125,5.25 4.381,10.029 9.4,12.932 6.482,3.748 14.207,3.371 20.166,-0.289 4.217,-1.877 5.303,0.316 5.537,1.068 0.018,0.049 0.033,0.104 0.045,0.158 0.016,0.049 0.016,0.076 0.016,0.076 l 0.006,-0.01 c 0.736,2.564 2.41,4.85 4.898,6.285 5.096,2.936 11.615,1.199 14.562,-3.896 2.94,-5.105 1.194,-11.63 -3.902,-14.566 z M 169.521,83.763 c 5.096,-2.936 11.616,-1.189 14.562,3.906 2.941,5.102 1.195,11.621 -3.9,14.557 -5.102,2.952 -11.616,1.195 -14.562,-3.896 -2.946,-5.101 -1.196,-11.621 3.9,-14.567 z M 93.193,98.33 c -2.946,5.09 -9.466,6.847 -14.562,3.896 -5.102,-2.936 -6.848,-9.455 -3.901,-14.557 2.94,-5.096 9.46,-6.842 14.562,-3.906 5.096,2.946 6.842,9.466 3.901,14.567 z m -3.901,56.38 c -5.102,2.936 -11.621,1.189 -14.562,-3.906 -2.946,-5.105 -1.2,-11.621 3.901,-14.561 5.096,-2.947 11.615,-1.195 14.562,3.895 2.941,5.108 1.195,11.621 -3.901,14.572 z m 40.112,-98.604 c 5.887,0 10.661,4.769 10.661,10.656 0,5.892 -4.774,10.661 -10.661,10.661 -5.888,0 -10.661,-4.769 -10.661,-10.661 0,-5.887 4.774,-10.656 10.661,-10.656 z m 0,126.261 c -5.888,0 -10.655,-4.768 -10.655,-10.66 0,-5.877 4.768,-10.65 10.655,-10.656 5.887,0 10.661,4.779 10.661,10.656 0,5.892 -4.774,10.66 -10.661,10.66 z m 0,-43.446 c -10.868,0 -19.68,-8.822 -19.68,-19.679 0,-10.868 8.812,-19.685 19.68,-19.685 10.868,0 19.679,8.816 19.679,19.685 0,10.857 -8.811,19.679 -19.679,19.679 z m 54.679,11.883 c -2.945,5.096 -9.461,6.842 -14.562,3.906 -5.097,-2.951 -6.847,-9.465 -3.901,-14.572 2.941,-5.09 9.461,-6.842 14.562,-3.895 5.096,2.94 6.842,9.465 3.901,14.561 z"
         style="color:#ffffff;font-weight:400;font-size:16px;font-family:'Anthropic Sans', '-apple-system', BlinkMacSystemFont, 'Segoe UI', sans-serif;dominant-baseline:auto;text-anchor:start;opacity:1;fill:#0f6e56;stroke:none;stroke-width:1px;stroke-linecap:butt;stroke-linejoin:miter"
         id="path5" />
    </g>
  </g>
  <!-- Wave lines: exact same path as clip boundary -->
  <path
     d="M 0,95.221246 C 17.5591,94.987627 34.95136,93.330545 52.51046,90.25 c 38,-6.66667 76,-6.66667 114,0 38,6.66667 75.33333,6.66667 112,0 36.66667,-6.66667 74,-6.66667 112,0 38,6.66667 76,6.66667 114,0 C 536.22161,84.68664 568.28885,83.85186 600,87.5738"
     fill="none"
     stroke="#1D9E75"
     stroke-width="2"
     stroke-linecap="round"
     style="color:#ffffff;font-weight:400;font-size:16px;font-family:'Anthropic Sans', '-apple-system', BlinkMacSystemFont, 'Segoe UI', sans-serif;dominant-baseline:auto;text-anchor:start;opacity:1;fill:none;stroke:#1d9e75;stroke-width:2px;stroke-linecap:round;stroke-linejoin:miter"
     id="path6" />
  <path
     d="m 0,102.22531 c 17.507438,-0.19302 35.003022,-1.51813 52.51046,-3.97531 38,-5.33333 76,-5.33333 114,0 38,5.33333 75.33333,5.33333 112,0 36.66667,-5.33333 74,-5.33333 112,0 38,5.33333 76,5.33333 114,0 C 536.34327,93.78224 568.1672,93.07277 600,96.09034"
     fill="none"
     stroke="#1D9E75"
     stroke-width="1"
     stroke-linecap="round"
     opacity="0.4"
     style="color:#ffffff;font-weight:400;font-size:16px;font-family:'Anthropic Sans', '-apple-system', BlinkMacSystemFont, 'Segoe UI', sans-serif;dominant-baseline:auto;text-anchor:start;opacity:0.4;fill:none;stroke:#1d9e75;stroke-width:1px;stroke-linecap:round;stroke-linejoin:miter"
     id="path7" />
  <path
     d="m 0,109.2337 c 17.599478,-0.13656 34.910982,-1.13112 52.51046,-2.9837 38,-4 76,-4 114,0 38,4 75.33333,4 112,0 36.66667,-4 74,-4 112,0 38,4 76,4 114,0 31.83297,-3.35084 63.65656,-3.89465 95.48954,-1.63142"
     fill="none"
     stroke="#0F6E56"
     stroke-width="0.6"
     stroke-linecap="round"
     opacity="0.3"
     style="color:#ffffff;font-weight:400;font-size:16px;font-family:'Anthropic Sans', '-apple-system', BlinkMacSystemFont, 'Segoe UI', sans-serif;dominant-baseline:auto;text-anchor:start;opacity:0.3;fill:none;stroke:#0f6e56;stroke-width:0.6px;stroke-linecap:round;stroke-linejoin:miter"
     id="path8" />
  <!-- Wordmark -->
  <g
     id="g12">
    <text
       x="300"
       y="181.81586"
       text-anchor="middle"
       font-family="var(--font-sans)"
       font-size="22"
       font-weight="500"
       fill="var(--color-text-primary)"
       letter-spacing="0.18em"
       style="color:#ffffff;font-weight:500;font-size:24px;font-family:'Anthropic Sans', sans-serif;dominant-baseline:auto;text-anchor:middle;fill:#faf9f5;stroke:none;stroke-width:1px;stroke-linecap:butt;stroke-linejoin:miter"
       id="text8">DEEP HARBOR</text>
    <text
       x="300"
       y="215.42766"
       text-anchor="middle"
       font-family="var(--font-sans)"
       font-size="11"
       font-weight="400"
       fill="var(--color-text-secondary)"
       letter-spacing="0.1em"
       style="color:#ffffff;font-weight:400;font-size:26.6667px;font-family:'Anthropic Sans', sans-serif;letter-spacing:0px;dominant-baseline:auto;text-anchor:middle;fill:#c2c0b6;stroke:none;stroke-width:1px;stroke-linecap:butt;stroke-linejoin:miter"
       id="text9"><tspan
         style="font-style:normal;font-variant:normal;font-weight:normal;font-stretch:normal;font-size:26.6667px;font-family:'GM Exp Norm';-inkscape-font-specification:'GM Exp Norm';letter-spacing:0px"
         id="tspan11">PUMPING STATION: ONE</tspan></text>
  </g>
  <circle
     cx="134.99998"
     cy="189.92175"
     r="2"
     fill="#1D9E75"
     opacity="0.7"
     style="color:#ffffff;font-weight:400;font-size:16px;font-family:'Anthropic Sans', '-apple-system', BlinkMacSystemFont, 'Segoe UI', sans-serif;dominant-baseline:auto;text-anchor:start;opacity:0.7;fill:#1d9e75;stroke:none;stroke-width:1px;stroke-linecap:butt;stroke-linejoin:miter"
     id="circle9" />
  <circle
     cx="465"
     cy="189.92175"
     r="2"
     fill="#1D9E75"
     opacity="0.7"
     style="color:#ffffff;font-weight:400;font-size:16px;font-family:'Anthropic Sans', '-apple-system', BlinkMacSystemFont, 'Segoe UI', sans-serif;dominant-baseline:auto;text-anchor:start;opacity:0.7;fill:#1d9e75;stroke:none;stroke-width:1px;stroke-linecap:butt;stroke-linejoin:miter"
     id="circle10" />
</svg>
